<svg xmlns="http://www.w3.org/2000/svg"
    xmlns:xlink="http://www.w3.org/1999/xlink">
  <line x1="588" y1="393" x2="628" y2="433" style="stroke:#006600;"/>
  <line x1="535" y1="399" x2="563" y2="466" style="stroke:#006600;"/>
  <line x1="456" y1="402" x2="484" y2="459" style="stroke:#006600;"/>
  <line x1="433" y1="399" x2="410" y2="460" style="stroke:#006600;"/>
  <line x1="353" y1="422" x2="414" y2="378" style="stroke:#006600;"/>
  <polygon points="613,359  612,359  612,360  612,361  612,362  612,363  612,364  612,365  612,366  612,367  612,368  611,369  611,370  611,371  611,372  610,372  610,373  610,374  610,375  609,376  609,377  609,378  608,379  608,380  607,380  607,381  606,382  606,383  605,384  605,385  604,386  604,386  603,387  603,388  602,389  602,389  601,390  600,391  600,392  599,392  598,393  598,394  597,395  596,395  596,396  595,397  594,397  593,398  593,399  592,399  591,400  590,400  589,401  589,402  588,402  587,403  586,403  585,404  584,404  583,405  583,405  582,406  581,406  580,407  579,407  578,407  577,408  576,408  575,409  574,409  573,409  572,410  571,410  570,410  569,410  568,411  567,411  566,411  565,411  564,412  563,412  562,412  561,412  560,412  559,412  558,412  557,412  556,412  555,412  554,412  553,413  551,412  550,412  549,412  548,412  547,412  546,412  545,412  544,412  543,412  542,412  541,412  540,411  539,411  538,411  537,411  536,410  535,410  534,410  533,410  532,409  531,409  530,409  529,408  528,408  527,407  526,407  525,407  524,406  523,406  523,405  522,405  521,404  520,404  519,403  518,403  517,402  516,402  516,401  515,400  514,400  513,399  512,399  512,398  511,397  510,397  509,396  509,395  508,395  507,394  507,393  506,392  505,392  505,391  504,390  503,389  503,389  502,388  502,387  501,386  501,386  500,385  500,384  499,383  499,382  498,381  498,380  497,380  497,379  496,378  496,377  496,376  495,375  495,374  495,373  495,372  494,372  494,371  494,370  494,369  493,368  493,367  493,366  493,365  493,364  493,363  493,362  493,361  493,360  493,359  493,359  493,358  493,357  493,356  493,355  493,354  493,353  493,352  493,351  493,350  493,349  494,348  494,347  494,346  494,345  495,345  495,344  495,343  495,342  496,341  496,340  496,339  497,338  497,337  498,337  498,336  499,335  499,334  500,333  500,332  501,332  501,331  502,330  502,329  503,328  503,328  504,327  505,326  505,325  506,325  507,324  507,323  508,322  509,322  509,321  510,320  511,320  512,319  512,318  513,318  514,317  515,317  516,316  516,315  517,315  518,314  519,314  520,313  521,313  522,312  523,312  523,311  524,311  525,310  526,310  527,310  528,309  529,309  530,308  531,308  532,308  533,307  534,307  535,307  536,307  537,306  538,306  539,306  540,306  541,305  542,305  543,305  544,305  545,305  546,305  547,305  548,305  549,305  550,305  551,305  553,305  554,305  555,305  556,305  557,305  558,305  559,305  560,305  561,305  562,305  563,305  564,305  565,306  566,306  567,306  568,306  569,307  570,307  571,307  572,307  573,308  574,308  575,308  576,309  577,309  578,310  579,310  580,310  581,311  582,311  583,312  583,312  584,313  585,313  586,314  587,314  588,315  589,315  589,316  590,317  591,317  592,318  593,318  593,319  594,320  595,320  596,321  596,322  597,322  598,323  598,324  599,325  600,325  600,326  601,327  602,328  602,328  603,329  603,330  604,331  604,332  605,332  605,333  606,334  606,335  607,336  607,337  608,337  608,338  609,339  609,340  609,341  610,342  610,343  610,344  610,345  611,345  611,346  611,347  611,348  612,349  612,350  612,351  612,352  612,353  612,354  612,355  612,356  612,357  612,358" style="stroke:#660000; fill:#cc3333; stroke-width: 3;"/>
  <polygon points="519,363  518,363  518,364  518,365  518,366  518,367  518,368  518,369  518,370  518,371  518,372  517,372  517,373  517,374  517,375  516,376  516,377  516,378  515,379  515,379  515,380  514,381  514,382  513,383  513,384  513,384  512,385  512,386  511,387  510,388  510,389  509,389  509,390  508,391  508,392  507,392  506,393  506,394  505,395  504,395  504,396  503,397  502,397  501,398  501,399  500,399  499,400  498,401  497,401  496,402  496,402  495,403  494,403  493,404  492,405  491,405  490,406  489,406  488,407  487,407  487,408  486,408  485,408  484,409  483,409  482,410  481,410  480,410  478,411  477,411  476,411  475,412  474,412  473,412  472,412  471,413  470,413  469,413  468,413  467,414  466,414  465,414  463,414  462,414  461,414  460,414  459,414  458,414  457,414  456,414  455,415  453,414  452,414  451,414  450,414  449,414  448,414  447,414  446,414  444,414  443,414  442,414  441,413  440,413  439,413  438,413  437,412  436,412  435,412  434,412  433,411  432,411  431,411  429,410  428,410  427,410  426,409  425,409  424,408  423,408  423,408  422,407  421,407  420,406  419,406  418,405  417,405  416,404  415,403  414,403  413,402  413,402  412,401  411,401  410,400  409,399  408,399  408,398  407,397  406,397  405,396  405,395  404,395  403,394  403,393  402,392  401,392  401,391  400,390  400,389  399,389  399,388  398,387  397,386  397,385  396,384  396,384  396,383  395,382  395,381  394,380  394,379  394,379  393,378  393,377  393,376  392,375  392,374  392,373  392,372  391,372  391,371  391,370  391,369  391,368  391,367  391,366  391,365  391,364  391,363  391,363  391,362  391,361  391,360  391,359  391,358  391,357  391,356  391,355  391,354  391,353  392,353  392,352  392,351  392,350  393,349  393,348  393,347  394,346  394,346  394,345  395,344  395,343  396,342  396,341  396,341  397,340  397,339  398,338  399,337  399,337  400,336  400,335  401,334  401,333  402,333  403,332  403,331  404,330  405,330  405,329  406,328  407,328  408,327  408,326  409,326  410,325  411,324  412,324  413,323  413,323  414,322  415,322  416,321  417,320  418,320  419,319  420,319  421,318  422,318  423,317  423,317  424,317  425,316  426,316  427,315  428,315  429,315  431,314  432,314  433,314  434,313  435,313  436,313  437,313  438,312  439,312  440,312  441,312  442,311  443,311  444,311  446,311  447,311  448,311  449,311  450,311  451,311  452,311  453,311  455,311  456,311  457,311  458,311  459,311  460,311  461,311  462,311  463,311  465,311  466,311  467,311  468,312  469,312  470,312  471,312  472,313  473,313  474,313  475,313  476,314  477,314  478,314  480,315  481,315  482,315  483,316  484,316  485,317  486,317  487,317  487,318  488,318  489,319  490,319  491,320  492,320  493,321  494,322  495,322  496,323  496,323  497,324  498,324  499,325  500,326  501,326  501,327  502,328  503,328  504,329  504,330  505,330  506,331  506,332  507,333  508,333  508,334  509,335  509,336  510,337  510,337  511,338  512,339  512,340  513,341  513,341  513,342  514,343  514,344  515,345  515,346  515,346  516,347  516,348  516,349  517,350  517,351  517,352  517,353  518,353  518,354  518,355  518,356  518,357  518,358  518,359  518,360  518,361  518,362" style="stroke:#660000; fill:#cc3333; stroke-width: 3;"/>
  <polygon points="569,205  568,208  568,211  568,214  568,217  568,220  568,223  568,226  568,229  568,232  568,235  567,238  567,241  567,244  567,247  566,250  566,253  566,256  566,259  565,262  565,265  564,268  564,270  564,273  563,276  563,279  562,282  562,284  561,287  561,290  560,293  560,295  559,298  559,300  558,303  557,305  557,308  556,310  556,313  555,315  554,318  554,320  553,322  552,325  551,327  551,329  550,331  549,333  548,335  548,337  547,339  546,341  545,343  544,345  543,347  542,349  542,350  541,352  540,354  539,355  538,357  537,358  536,360  535,361  534,363  533,364  532,365  531,367  530,368  529,369  528,370  527,371  526,372  525,373  524,374  523,375  522,375  521,376  520,377  519,377  518,378  517,378  516,379  515,379  514,380  513,380  512,380  511,380  510,380  509,380  508,381  506,380  505,380  504,380  503,380  502,380  501,380  500,379  499,379  498,378  497,378  496,377  495,377  494,376  493,375  492,375  491,374  490,373  489,372  488,371  487,370  486,369  485,368  484,367  483,365  482,364  481,363  480,361  479,360  478,358  477,357  476,355  475,354  474,352  473,350  473,349  472,347  471,345  470,343  469,341  468,339  467,337  467,335  466,333  465,331  464,329  464,327  463,325  462,322  461,320  461,318  460,315  459,313  459,310  458,308  458,305  457,303  456,300  456,298  455,295  455,293  454,290  454,287  453,284  453,282  452,279  452,276  451,273  451,270  451,268  450,265  450,262  449,259  449,256  449,253  449,250  448,247  448,244  448,241  448,238  447,235  447,232  447,229  447,226  447,223  447,220  447,217  447,214  447,211  447,208  447,205  447,201  447,198  447,195  447,192  447,189  447,186  447,183  447,180  447,177  447,174  448,171  448,168  448,165  448,162  449,159  449,156  449,153  449,150  450,147  450,144  451,141  451,139  451,136  452,133  452,130  453,127  453,125  454,122  454,119  455,116  455,114  456,111  456,109  457,106  458,104  458,101  459,99  459,96  460,94  461,91  461,89  462,87  463,84  464,82  464,80  465,78  466,76  467,74  467,72  468,70  469,68  470,66  471,64  472,62  473,60  473,59  474,57  475,55  476,54  477,52  478,51  479,49  480,48  481,46  482,45  483,44  484,42  485,41  486,40  487,39  488,38  489,37  490,36  491,35  492,34  493,34  494,33  495,32  496,32  497,31  498,31  499,30  500,30  501,29  502,29  503,29  504,29  505,29  506,29  508,29  509,29  510,29  511,29  512,29  513,29  514,29  515,30  516,30  517,31  518,31  519,32  520,32  521,33  522,34  523,34  524,35  525,36  526,37  527,38  528,39  529,40  530,41  531,42  532,44  533,45  534,46  535,48  536,49  537,51  538,52  539,54  540,55  541,57  542,59  542,60  543,62  544,64  545,66  546,68  547,70  548,72  548,74  549,76  550,78  551,80  551,82  552,84  553,87  554,89  554,91  555,94  556,96  556,99  557,101  557,104  558,106  559,109  559,111  560,114  560,116  561,119  561,122  562,125  562,127  563,130  563,133  564,136  564,139  564,141  565,144  565,147  566,150  566,153  566,156  566,159  567,162  567,165  567,168  567,171  568,174  568,177  568,180  568,183  568,186  568,189  568,192  568,195  568,198  568,201" style="stroke:#660000; fill:#cc3333; stroke-width: 3;"/>
</svg>